<?xml version="1.0" standalone="no"?>
<!DOCTYPE svg PUBLIC "-//W3C//DTD SVG 20010904//EN"
 "http://www.w3.org/TR/2001/REC-SVG-20010904/DTD/svg10.dtd">
<svg version="1.0" xmlns="http://www.w3.org/2000/svg"
 width="260.000000pt" height="260.000000pt" viewBox="0 0 260.000000 260.000000"
 preserveAspectRatio="xMidYMid meet">
<metadata>
Created by potrace 1.14, written by Peter Selinger 2001-2017
</metadata>
<g transform="translate(0.000000,260.000000) scale(0.100000,-0.100000)"
fill="#000000" stroke="none">
<path d="M0 1300 l0 -1300 1300 0 1300 0 0 1300 0 1300 -1300 0 -1300 0 0
-1300z m640 228 c107 -255 196 -467 200 -471 4 -4 73 151 155 345 81 194 170
406 197 471 l50 117 94 0 94 0 0 -600 0 -600 -87 0 -86 0 5 425 c4 234 5 425
4 425 -2 0 -83 -191 -182 -425 l-179 -425 -60 0 -60 0 -174 413 c-96 226 -177
418 -181 426 -4 8 -5 -177 -2 -412 l5 -427 -87 0 -86 0 0 600 0 600 94 0 93 0
193 -462z m1554 447 c183 -39 289 -171 289 -360 0 -137 -54 -242 -155 -303
-78 -47 -164 -62 -355 -62 l-163 0 0 -235 0 -235 -80 0 -80 0 0 605 0 605 238
0 c170 0 257 -5 306 -15z m296 -1345 l0 -80 -1185 0 -1185 0 0 80 0 80 1185 0
1185 0 0 -80z"/>
<path d="M1810 1620 l0 -220 163 0 c89 0 178 5 198 10 95 26 149 100 149 202
0 70 -20 121 -63 166 -48 50 -105 62 -289 62 l-158 0 0 -220z"/>
</g>
</svg>
